<?xml version="1.0" encoding="UTF-8"?>
<svg version="1.1" xmlns="http://www.w3.org/2000/svg" width="535" height="285">
<path d="M0 0 C0.98325508 -0.0098568 0.98325508 -0.0098568 1.9863739 -0.01991272 C4.15912996 -0.03964861 6.33181688 -0.05130922 8.50463867 -0.0612793 C9.24677801 -0.06535482 9.98891735 -0.06943035 10.75354576 -0.07362938 C14.68204851 -0.09449195 18.61051632 -0.10879249 22.5390625 -0.11816406 C26.59454865 -0.12922549 30.64948563 -0.16362107 34.70477772 -0.20333576 C37.82493603 -0.2294968 40.94496344 -0.23785543 44.06522179 -0.24144554 C45.55994053 -0.24631335 47.05465335 -0.25793303 48.54926491 -0.27648354 C50.64396119 -0.30086468 52.73723616 -0.29991293 54.83203125 -0.29296875 C56.61834709 -0.30176811 56.61834709 -0.30176811 58.44075012 -0.31074524 C62.26520247 0.27781759 63.90849277 1.45106423 66.61010742 4.17700195 C67.72818538 7.53123584 67.74386849 10.06927164 67.75537109 13.60449219 C67.75872971 14.25199432 67.76208832 14.89949646 67.76554871 15.56661987 C67.77504481 17.70629802 67.77700108 19.8458978 67.77807617 21.9855957 C67.78128949 23.47388237 67.78465362 24.96216871 67.78816223 26.45045471 C67.79415 29.5700046 67.79600247 32.6895268 67.79541016 35.80908203 C67.79530851 39.80505033 67.80896488 43.80084104 67.82618237 47.79676723 C67.83730396 50.87055781 67.83932932 53.94430545 67.83880043 57.01811409 C67.83998015 58.49129918 67.84440146 59.9644854 67.8521328 61.43765068 C67.86193681 63.49859925 67.85905334 65.55916233 67.85302734 67.62011719 C67.85445236 68.79243393 67.85587738 69.96475067 67.85734558 71.17259216 C67.60931433 74.18663949 67.38046431 75.75110848 65.61010742 78.17700195 C61.75879775 81.18256041 58.78808238 81.55869829 53.97143555 81.58105469 C53.32524765 81.58791794 52.67905975 81.59478119 52.01329041 81.60185242 C49.88908574 81.62007119 47.76562302 81.61629088 45.64135742 81.6105957 C44.15832277 81.61515947 42.67529022 81.62046563 41.19226074 81.6264801 C38.08877961 81.63540115 34.98555595 81.63299923 31.88208008 81.62304688 C27.91066814 81.61155028 23.94014446 81.63178325 19.96884918 81.66096401 C16.90784083 81.67933355 13.84704514 81.67903228 10.78599548 81.67332649 C9.32200371 81.67317341 7.8579974 81.679207 6.39405823 81.69161797 C4.34506897 81.70654422 2.29771825 81.69584277 0.2487793 81.67871094 C-1.49731628 81.67846169 -1.49731628 81.67846169 -3.27868652 81.6782074 C-7.03583709 81.07294234 -8.69159858 79.80752418 -11.38989258 77.17700195 C-12.81565618 74.32547475 -12.5408782 71.88321126 -12.56689453 68.6953125 C-12.57346573 68.03005554 -12.58003693 67.36479858 -12.58680725 66.67938232 C-12.60654419 64.47416066 -12.61820395 62.26900713 -12.62817383 60.0637207 C-12.63224936 59.3105488 -12.63632488 58.5573769 -12.64052391 57.78138161 C-12.66138688 53.79452412 -12.67568728 49.80770106 -12.68505859 45.82080078 C-12.69612043 41.70478414 -12.73051641 37.58930853 -12.77023029 33.47348309 C-12.79638944 30.30700177 -12.80474979 27.14064946 -12.80834007 23.9740696 C-12.81320832 22.45702271 -12.82482924 20.93998168 -12.84337807 19.42304039 C-12.86775518 17.29721743 -12.86680812 15.17279525 -12.85986328 13.046875 C-12.86572952 11.83823288 -12.87159576 10.62959076 -12.87763977 9.38432312 C-12.29506807 5.55345629 -11.07827728 3.91350154 -8.38989258 1.17700195 C-5.56039822 -0.23774523 -3.16418661 0.0262088 0 0 Z M13.61010742 25.17700195 C11.57102635 28.90422433 11.41433684 31.9679344 11.61010742 36.17700195 C13.90644567 32.73249459 14.15027227 30.23887913 14.61010742 26.17700195 C15.44541992 26.10352539 15.44541992 26.10352539 16.29760742 26.02856445 C21.57578007 25.51144619 26.49373107 24.57237732 31.61010742 23.17700195 C31.61010742 22.84700195 31.61010742 22.51700195 31.61010742 22.17700195 C25.49341195 21.76922226 19.17239031 22.47426748 13.61010742 25.17700195 Z M33.61010742 25.17700195 C33.30313712 28.25739894 33.30313712 28.25739894 35.36010742 30.42700195 C37.43576868 32.46110953 37.43576868 32.46110953 39.86010742 31.92700195 C40.43760742 31.67950195 41.01510742 31.43200195 41.61010742 31.17700195 C40.84698242 30.74387695 40.08385742 30.31075195 39.29760742 29.86450195 C37.02916974 28.44013411 35.39013512 27.14440099 33.61010742 25.17700195 Z M17.61010742 29.17700195 C18.60010742 33.13700195 19.59010742 37.09700195 20.61010742 41.17700195 C21.27010742 41.17700195 21.93010742 41.17700195 22.61010742 41.17700195 C21.95010742 37.54700195 21.29010742 33.91700195 20.61010742 30.17700195 C19.62010742 29.84700195 18.63010742 29.51700195 17.61010742 29.17700195 Z M22.61010742 29.17700195 C23.70901225 36.09363823 25.17579927 42.60436995 27.61010742 49.17700195 C28.89971936 46.59777808 28.40222435 45.77408984 27.61401367 43.04418945 C27.38520508 42.23852539 27.15639648 41.43286133 26.9206543 40.6027832 C26.67379883 39.76102539 26.42694336 38.91926758 26.17260742 38.05200195 C25.92961914 37.20250977 25.68663086 36.35301758 25.4362793 35.4777832 C24.83396432 33.37558583 24.22500217 31.27554765 23.61010742 29.17700195 C23.28010742 29.17700195 22.95010742 29.17700195 22.61010742 29.17700195 Z M26.61010742 31.17700195 C27.25559595 33.9270833 27.90148508 36.67706951 28.54760742 39.42700195 C28.73000977 40.20430664 28.91241211 40.98161133 29.1003418 41.7824707 C29.36621094 42.91362305 29.36621094 42.91362305 29.63745117 44.06762695 C29.79979248 44.75888672 29.96213379 45.45014648 30.12939453 46.16235352 C30.60867362 48.17099296 31.10557344 50.17457137 31.61010742 52.17700195 C32.27010742 52.17700195 32.93010742 52.17700195 33.61010742 52.17700195 C33.02612885 49.04787612 32.41453641 45.92478432 31.79760742 42.80200195 C31.63196289 41.91254883 31.46631836 41.0230957 31.2956543 40.10668945 C31.03945312 38.83051758 31.03945312 38.83051758 30.77807617 37.52856445 C30.55027466 36.35028076 30.55027466 36.35028076 30.31787109 35.14819336 C29.69747767 32.80505627 29.69747767 32.80505627 26.61010742 31.17700195 Z M10.61010742 36.17700195 C11.61010742 40.17700195 11.61010742 40.17700195 11.61010742 40.17700195 Z M44.61010742 39.17700195 C45.61010742 41.17700195 45.61010742 41.17700195 45.61010742 41.17700195 Z M32.61010742 40.17700195 C33.60010742 41.66200195 33.60010742 41.66200195 34.61010742 43.17700195 C34.61010742 42.18700195 34.61010742 41.19700195 34.61010742 40.17700195 C33.95010742 40.17700195 33.29010742 40.17700195 32.61010742 40.17700195 Z M43.61010742 42.17700195 C42.12510742 47.62200195 42.12510742 47.62200195 40.61010742 53.17700195 C41.27010742 53.17700195 41.93010742 53.17700195 42.61010742 53.17700195 C44.39308611 47.76758294 44.39308611 47.76758294 43.61010742 42.17700195 Z M34.61010742 43.17700195 C35.61010742 46.17700195 35.61010742 46.17700195 35.61010742 46.17700195 Z M35.61010742 47.17700195 C35.61010742 48.82700195 35.61010742 50.47700195 35.61010742 52.17700195 C36.27010742 51.84700195 36.93010742 51.51700195 37.61010742 51.17700195 C36.95010742 49.85700195 36.29010742 48.53700195 35.61010742 47.17700195 Z M15.61010742 48.17700195 C16.97381042 51.16920464 18.55918825 53.46726724 20.73510742 55.92700195 C21.27393555 56.5405957 21.81276367 57.15418945 22.36791992 57.78637695 C22.7778418 58.2452832 23.18776367 58.70418945 23.61010742 59.17700195 C24.93010742 58.84700195 26.25010742 58.51700195 27.61010742 58.17700195 C27.05581055 57.70649414 26.50151367 57.23598633 25.93041992 56.7512207 C24.84374023 55.81729492 24.84374023 55.81729492 23.73510742 54.86450195 C23.01581055 54.24961914 22.29651367 53.63473633 21.55541992 53.0012207 C19.61010742 51.17700195 19.61010742 51.17700195 17.61010742 48.17700195 C16.95010742 48.17700195 16.29010742 48.17700195 15.61010742 48.17700195 Z M35.12963867 54.63793945 C33.7896582 55.09040039 33.7896582 55.09040039 32.42260742 55.55200195 C31.52155273 55.84848633 30.62049805 56.1449707 29.69213867 56.45043945 C29.00506836 56.69020508 28.31799805 56.9299707 27.61010742 57.17700195 C30.88196296 58.25011053 33.03958334 58.06963297 36.36010742 57.23950195 C37.15932617 57.04485352 37.95854492 56.85020508 38.78198242 56.6496582 C39.6869043 56.41569336 39.6869043 56.41569336 40.61010742 56.17700195 C37.85105059 53.83396826 37.85105059 53.83396826 35.12963867 54.63793945 Z " fill="#FEFEFE" transform="translate(58.389892578125,108.822998046875)"/>
<path d="M0 0 C1.32 0 2.64 0 4 0 C4.19477739 1.62414378 4.38059458 3.24936423 4.5625 4.875 C4.66691406 5.77992188 4.77132812 6.68484375 4.87890625 7.6171875 C5 10 5 10 4 12 C4.70125 11.649375 5.4025 11.29875 6.125 10.9375 C10.47593499 9.51871685 13.75566429 10.58522143 18 12 C20.3406065 11.72230092 22.67624308 11.39460023 25 11 C24.67 10.01 24.34 9.02 24 8 C24.33 7.01 24.66 6.02 25 5 C26.65 5 28.3 5 30 5 C30 6.98 30 8.96 30 11 C31.65 11 33.3 11 35 11 C35 12.32 35 13.64 35 15 C33.35 15 31.7 15 30 15 C30 18.63 30 22.26 30 26 C31.98 26 33.96 26 36 26 C35.34 27.65 34.68 29.3 34 31 C30.625 30.6875 30.625 30.6875 27 30 C24.64880601 26.47320901 24.78556548 24.97120515 24.875 20.8125 C24.89304688 19.72582031 24.91109375 18.63914063 24.9296875 17.51953125 C24.95289063 16.68808594 24.97609375 15.85664063 25 15 C23.35 15.33 21.7 15.66 20 16 C20.05800781 16.59167969 20.11601562 17.18335938 20.17578125 17.79296875 C20.42607078 22.17661109 20.48334904 24.31762489 17.875 28 C11.76849607 32.24800273 7.56236809 30.84026312 0 30 C0 20.1 0 10.2 0 0 Z M5 16 C3.99917465 19.42243314 3.99917465 19.42243314 4 23 C5.67012227 26.1432514 5.67012227 26.1432514 8.375 26.875 C11.03618689 27.22460704 11.03618689 27.22460704 13.25 25.8125 C15.24123999 23.7501443 15.91570051 22.8661826 16 20 C14.73917117 17.14654528 13.91367777 15.44210215 11.0625 14.0625 C8.29685128 13.97869246 7.15350355 14.21779016 5 16 Z " fill="#FDFDFD" transform="translate(201,135)"/>
<path d="M0 0 C1.32 0 2.64 0 4 0 C4.19477739 1.62414378 4.38059458 3.24936423 4.5625 4.875 C4.66691406 5.77992188 4.77132813 6.68484375 4.87890625 7.6171875 C5 10 5 10 4 12 C4.515625 11.649375 5.03125 11.29875 5.5625 10.9375 C9.0211441 9.60725227 11.4440159 10.14392975 15 11 C17.52775351 14.79163027 17.22443035 17.80874031 17.125 22.1875 C17.11597656 22.93708984 17.10695313 23.68667969 17.09765625 24.45898438 C17.07412578 26.30612654 17.03825561 28.15310412 17 30 C15.68 30 14.36 30 13 30 C12.67 25.38 12.34 20.76 12 16 C8.25308553 14.60229416 8.25308553 14.60229416 6 16 C5.58244638 18.31974234 5.2644354 20.65785793 5 23 C4.66666667 25.33333333 4.33333333 27.66666667 4 30 C3.37351562 29.98839844 2.74703125 29.97679687 2.1015625 29.96484375 C0.87566406 29.95130859 0.87566406 29.95130859 -0.375 29.9375 C-1.59316406 29.92009766 -1.59316406 29.92009766 -2.8359375 29.90234375 C-5.04937142 29.85533666 -5.04937142 29.85533666 -7 31 C-11.53022942 31.12243863 -14.98332245 30.81830145 -18.5625 27.9375 C-20.43169706 24.11783645 -20.69293034 21.17448276 -20 17 C-18.67502283 13.79216054 -17.84052436 12.43193613 -14.75 10.84375 C-11.60924898 9.88011048 -9.43502392 9.98373206 -6.1875 10.375 C-4.72376953 10.54128906 -4.72376953 10.54128906 -3.23046875 10.7109375 C-2.49441406 10.80632812 -1.75835937 10.90171875 -1 11 C-1 13.31 -1 15.62 -1 18 C-1.99 17.34 -2.98 16.68 -4 16 C-7.47677815 15.16996757 -7.47677815 15.16996757 -11 15 C-11.99 15.66 -12.98 16.32 -14 17 C-14.25015873 20.58357241 -14.25015873 20.58357241 -14 24 C-8.75562392 26.94996155 -7.75911305 25.68977826 -1 24 C-0.67 16.08 -0.34 8.16 0 0 Z " fill="#FDFDFD" transform="translate(281,135)"/>
<path d="M0 0 C1.32 0 2.64 0 4 0 C4.33 5.28 4.66 10.56 5 16 C5.66 14.68 6.32 13.36 7 12 C7.33 15.63 7.66 19.26 8 23 C8.33 19.04 8.66 15.08 9 11 C10.65 11.33 12.3 11.66 14 12 C14 15.96 14 19.92 14 24 C15.32 24.66 16.64 25.32 18 26 C18.99 25.34 19.98 24.68 21 24 C21.58592634 20.88389446 21.58592634 20.88389446 21.6875 17.375 C21.75324219 16.18648437 21.81898438 14.99796875 21.88671875 13.7734375 C21.92410156 12.85820312 21.96148437 11.94296875 22 11 C23.32 11 24.64 11 26 11 C26.19425873 13.79134852 26.38069517 16.58283687 26.5625 19.375 C26.61857422 20.1690625 26.67464844 20.963125 26.73242188 21.78125 C27.11328125 27.7734375 27.11328125 27.7734375 26 30 C23.41796875 30.51953125 23.41796875 30.51953125 20.1875 30.8125 C19.12917969 30.92207031 18.07085937 31.03164062 16.98046875 31.14453125 C13.54322818 30.97784986 12.53598415 30.21421412 10 28 C8.01985568 27.27648573 6.02178685 26.59734611 4 26 C4 27.32 4 28.64 4 30 C2.68 30 1.36 30 0 30 C0 20.1 0 10.2 0 0 Z " fill="#FDFDFD" transform="translate(356,135)"/>
<path d="M0 0 C1.33790641 0.99387334 2.67218122 1.9926892 4 3 C6.20800528 2.78282648 6.20800528 2.78282648 8 2 C8 2.99 8 3.98 8 5 C7.34 5.33 6.68 5.66 6 6 C5.896875 7.2375 5.79375 8.475 5.6875 9.75 C5.34109863 13.32306593 5.013433 13.98381151 2.5625 16.9375 C-1.18630512 19.95483095 -3.18101275 20.46336416 -8 20 C-10.04291182 18.73339467 -12.04690112 17.40113616 -14 16 C-16.22602615 15.23060319 -16.22602615 15.23060319 -18 15 C-18.66 16.32 -19.32 17.64 -20 19 C-21.65 19 -23.3 19 -25 19 C-24.67 12.73 -24.34 6.46 -24 0 C-22.35 0.33 -20.7 0.66 -19 1 C-19 3.97 -19 6.94 -19 10 C-18.01 9.01 -17.02 8.02 -16 7 C-16 6.34 -16 5.68 -16 5 C-15.34 5 -14.68 5 -14 5 C-13.773125 4.38125 -13.54625 3.7625 -13.3125 3.125 C-10.16941863 -1.96379841 -5.25206696 -1.24139764 0 0 Z M-10 5 C-11.00082535 8.42243314 -11.00082535 8.42243314 -11 12 C-9.32987773 15.1432514 -9.32987773 15.1432514 -6.625 15.875 C-3.96381311 16.22460704 -3.96381311 16.22460704 -1.75 14.8125 C0.24123999 12.7501443 0.91570051 11.8661826 1 9 C-0.26082883 6.14654528 -1.08632223 4.44210215 -3.9375 3.0625 C-6.70314872 2.97869246 -7.84649645 3.21779016 -10 5 Z " fill="#FDFDFD" transform="translate(426,146)"/>
<path d="M0 0 C1.65 0 3.3 0 5 0 C6.32 3.63 7.64 7.26 9 11 C9.33 9.68 9.66 8.36 10 7 C9.34 7 8.68 7 8 7 C8 6.01 8 5.02 8 4 C9.32 4 10.64 4 12 4 C12.33 2.68 12.66 1.36 13 0 C14.65 0 16.3 0 18 0 C19.32 3.63 20.64 7.26 22 11 C22.99 7.37 23.98 3.74 25 0 C26.65 0 28.3 0 30 0 C28.47214176 6.59904729 26.92382423 12.87389209 24 19 C22.35 19 20.7 19 19 19 C17.68 15.7 16.36 12.4 15 9 C13.68 12.3 12.36 15.6 11 19 C9.35 19 7.7 19 6 19 C4.99619084 16.20964954 3.9968055 13.41785145 3 10.625 C2.57074219 9.43390625 2.57074219 9.43390625 2.1328125 8.21875 C1.86210937 7.45820313 1.59140625 6.69765625 1.3125 5.9140625 C1.06113281 5.2123291 0.80976563 4.5105957 0.55078125 3.78759766 C0 2 0 2 0 0 Z M10 5 C11 7 11 7 11 7 Z " fill="#FDFDFD" transform="translate(146,146)"/>
<path d="M0 0 C2.4375 2.0625 2.4375 2.0625 4 4 C4.99 3.67 5.98 3.34 7 3 C7 7.29 7 11.58 7 16 C6.67 16 6.34 16 6 16 C5.67 13.69 5.34 11.38 5 9 C4.67 9.66 4.34 10.32 4 11 C-0.95 11 -5.9 11 -11 11 C-9.68 12.32 -8.36 13.64 -7 15 C-3.39779751 14.81527167 -0.29628819 13.41269494 3 12 C3 13.65 3 15.3 3 17 C-0.46587774 19.16617359 -3.06792156 20.28698616 -7.125 19.9375 C-11.14481074 18.96496514 -12.68425493 18.37712822 -15 15 C-15 13.68 -15 12.36 -15 11 C-15.66 11 -16.32 11 -17 11 C-17.8125 9.3125 -17.8125 9.3125 -18 7 C-13.02276334 0.81616052 -7.86359482 -2.18433189 0 0 Z M-9.625 4.375 C-11.21531408 5.89968321 -11.21531408 5.89968321 -11 8 C-7.7 8 -4.4 8 -1 8 C-1.33 6.68 -1.66 5.36 -2 4 C-6.05551342 2.68486232 -6.05551342 2.68486232 -9.625 4.375 Z " fill="#FDFDFD" transform="translate(193,146)"/>
<path d="M0 0 C2.3125 2.5 2.3125 2.5 4 5 C4.66 5.33 5.32 5.66 6 6 C5.67 7.65 5.34 9.3 5 11 C0.71 11 -3.58 11 -8 11 C-7.67 12.32 -7.34 13.64 -7 15 C-3.87709365 14.51421457 -1.00419641 14.0013988 2 13 C2.33 14.32 2.66 15.64 3 17 C-1.28128572 19.67580357 -4.28109409 20.50026643 -9.16796875 19.640625 C-12.24812505 18.56355542 -13.42630224 16.76970805 -15 14 C-16.37910164 10.50627585 -16.01119325 9.03818872 -14.9375 5.375 C-11.36298792 -0.85156943 -6.75928864 -2.00275219 0 0 Z M-8 3 C-8.33 3.99 -8.66 4.98 -9 6 C-9.66 6 -10.32 6 -11 6 C-11 6.66 -11 7.32 -11 8 C-7.37 8 -3.74 8 0 8 C-1.1375562 5.40858714 -1.1375562 5.40858714 -3 3 C-5.62694422 2.58219121 -5.62694422 2.58219121 -8 3 Z M-11 11 C-10.01 12.485 -10.01 12.485 -9 14 C-9 13.01 -9 12.02 -9 11 C-9.66 11 -10.32 11 -11 11 Z " fill="#FDFDFD" transform="translate(254,146)"/>
<path d="M0 0 C3.44394159 2.6020892 4.7839468 4.30100434 6.0625 8.4375 C5.98454913 12.88069934 4.87270176 14.66145471 2 18 C-0.74519126 20.25497853 -2.29470687 20 -5.9375 20 C-9.42080405 19.44006701 -10.15592879 18.86356231 -13 16.375 C-15.67257682 11.86502662 -15.69104014 8.76416058 -14.4375 3.75 C-10.72849637 -0.76530877 -5.33879835 -1.85697334 0 0 Z M-8.375 3.9375 C-10.30278458 6.02962976 -10.30278458 6.02962976 -10.5 9.5 C-10.31831521 12.98138734 -10.31831521 12.98138734 -8.3125 15 C-5.3733951 16.27096428 -3.98417102 16.09943143 -1 15 C1.56687367 11.1496895 0.83288724 9.41430237 0 5 C-4.12121482 3.11574142 -4.12121482 3.11574142 -8.375 3.9375 Z " fill="#FDFDFD" transform="translate(346,146)"/>
<path d="M0 0 C0.625 1.8125 0.625 1.8125 1 4 C0.01 5.485 0.01 5.485 -1 7 C-1.99 7 -2.98 7 -4 7 C-1.525 7.99 -1.525 7.99 1 9 C2.32597623 15.38879457 2.32597623 15.38879457 1 17.875 C-2.05071112 19.591025 -4.51077439 19.88172117 -8 20 C-11.4375 18.5625 -11.4375 18.5625 -14 17 C-13.505 15.515 -13.505 15.515 -13 14 C-12.34 14 -11.68 14 -11 14 C-11.66 13.01 -12.32 12.02 -13 11 C-13.875 8.125 -13.875 8.125 -14 5 C-10.10290041 -1.26319577 -6.91057913 -1.17349457 0 0 Z M-6 3 C-5.67 3.66 -5.34 4.32 -5 5 C-4.34 4.67 -3.68 4.34 -3 4 C-3.99 3.67 -4.98 3.34 -6 3 Z M-8 4 C-7.67 4.66 -7.34 5.32 -7 6 C-6.67 5.34 -6.34 4.68 -6 4 C-6.66 4 -7.32 4 -8 4 Z M-10 11 C-9.34 11.66 -8.68 12.32 -8 13 C-8.99 13.495 -8.99 13.495 -10 14 C-8.02 14.66 -6.04 15.32 -4 16 C-3.67 14.68 -3.34 13.36 -3 12 C-5.31 11.67 -7.62 11.34 -10 11 Z " fill="#FDFDFD" transform="translate(469,146)"/>
<path d="M0 0 C-0.49869404 5.36891879 -1.02227532 10.69235173 -2 16 C-3.65 16 -5.3 16 -7 16 C-7.33 11.05 -7.66 6.1 -8 1 C-9.98 1.33 -11.96 1.66 -14 2 C-15.00259507 5.00778521 -15.30314642 7.53820647 -15.5625 10.6875 C-15.64628906 11.68136719 -15.73007812 12.67523438 -15.81640625 13.69921875 C-15.87699219 14.45847656 -15.93757813 15.21773437 -16 16 C-17.32 16 -18.64 16 -20 16 C-20.33 10.06 -20.66 4.12 -21 -2 C-19.35 -2.33 -17.7 -2.66 -16 -3 C-15.195625 -3.20625 -14.39125 -3.4125 -13.5625 -3.625 C-8.20204984 -4.40945612 -4.41344112 -2.98556311 0 0 Z M-3 2 C-2 4 -2 4 -2 4 Z " fill="#FDFDFD" transform="translate(455,149)"/>
<path d="M0 0 C0.66 0.99 1.32 1.98 2 3 C0.35 4.32 -1.3 5.64 -3 7 C-2.175 7.37125 -1.35 7.7425 -0.5 8.125 C2 10 2 10 2.5 13 C2 16 2 16 0.9375 17.8125 C-2.04560004 19.64085164 -4.52738683 19.88025472 -8 20 C-10.9375 18.5625 -10.9375 18.5625 -13 17 C-12.34 15.68 -11.68 14.36 -11 13 C-8.69 13.66 -6.38 14.32 -4 15 C-3.67 14.01 -3.34 13.02 -3 12 C-3.9075 11.9175 -4.815 11.835 -5.75 11.75 C-9.46100241 10.89361483 -10.83642572 10.11554696 -13 7 C-13.0625 4.4375 -13.0625 4.4375 -12 2 C-8.03498074 -1.49854641 -4.98531879 -1.31687666 0 0 Z M-8 4 C-7.67 4.66 -7.34 5.32 -7 6 C-6.67 5.34 -6.34 4.68 -6 4 C-6.66 4 -7.32 4 -8 4 Z " fill="#FDFDFD" transform="translate(326,146)"/>
<path d="M0 0 C1.65 0 3.3 0 5 0 C6.125 3.75 6.125 3.75 5 6 C6.65 5.34 8.3 4.68 10 4 C10.38218767 5.65614657 10.71395102 7.32457024 11 9 C10.67 9.33 10.34 9.66 10 10 C8.35 10 6.7 10 5 10 C5.33 13.3 5.66 16.6 6 20 C7.65 20.33 9.3 20.66 11 21 C10.01 23.475 10.01 23.475 9 26 C2.25 25.25 2.25 25.25 0 23 C-0.1953125 19.9609375 -0.1953125 19.9609375 -0.125 16.375 C-0.10695313 15.18648437 -0.08890625 13.99796875 -0.0703125 12.7734375 C-0.04710937 11.85820312 -0.02390625 10.94296875 0 10 C-1.32 10 -2.64 10 -4 10 C-4.33 10.66 -4.66 11.32 -5 12 C-4.67 10.02 -4.34 8.04 -4 6 C-2.68 6 -1.36 6 0 6 C-0.33 5.01 -0.66 4.02 -1 3 C-0.67 2.01 -0.34 1.02 0 0 Z " fill="#FDFDFD" transform="translate(388,140)"/>
<path d="M0 0 C2.0625 0.4375 2.0625 0.4375 4 1 C3.67 2.65 3.34 4.3 3 6 C1.35 5.67 -0.3 5.34 -2 5 C-1.125 1.125 -1.125 1.125 0 0 Z " fill="#FDFDFD" transform="translate(403,136)"/>
<path d="M0 0 C3.00617269 3.00617269 2.59585316 5.82381598 3 10 C2.01 9.67 1.02 9.34 0 9 C-0.87890625 2.84765625 -0.87890625 2.84765625 -1 1 C-0.67 0.67 -0.34 0.34 0 0 Z " fill="#EBEFF1" transform="translate(91,150)"/>
<path d="M0 0 C2.76223278 2.76223278 2.57856291 5.20706617 3 9 C2.01 8.67 1.02 8.34 0 8 C-1.125 2.25 -1.125 2.25 0 0 Z " fill="#F7F9F9" transform="translate(86,148)"/>
<path d="M0 0 C0.33 0 0.66 0 1 0 C1 2.64 1 5.28 1 8 C0.67 8 0.34 8 0 8 C-0.38063221 5.6739143 -0.71269945 3.33944736 -1 1 C-0.67 0.67 -0.34 0.34 0 0 Z " fill="#FFFFFF" transform="translate(353,150)"/>
<path d="M0 0 C2.97 0.495 2.97 0.495 6 1 C4.125 1.625 4.125 1.625 2 2 C1.34 1.34 0.68 0.68 0 0 Z " fill="#FFFFFF" transform="translate(316,158)"/>
<path d="M0 0 C4 1 4 1 4 1 Z " fill="#FFFFFF" transform="translate(371,159)"/>
<path d="M0 0 C1 4 1 4 1 4 Z " fill="#FFFFFF" transform="translate(433,153)"/>
<path d="M0 0 C0.33 0.66 0.66 1.32 1 2 C0.34 1.67 -0.32 1.34 -1 1 C-0.67 0.67 -0.34 0.34 0 0 Z " fill="#FFFFFF" transform="translate(400,162)"/>
<path d="" fill="#FFFFFF" transform="translate(0,0)"/>
<path d="M0 0 C0.33 0.66 0.66 1.32 1 2 C0.34 1.67 -0.32 1.34 -1 1 C-0.67 0.67 -0.34 0.34 0 0 Z " fill="#FFFFFF" transform="translate(190,151)"/>
<path d="M0 0 C2 1 2 1 2 1 Z " fill="#FFFFFF" transform="translate(329,159)"/>
<path d="" fill="#FFFFFF" transform="translate(0,0)"/>
<path d="" fill="#FFFFFF" transform="translate(0,0)"/>
<path d="" fill="#FFFFFF" transform="translate(0,0)"/>
<path d="" fill="#FFFFFF" transform="translate(0,0)"/>
<path d="" fill="#FFFFFF" transform="translate(0,0)"/>
<path d="" fill="#FFFFFF" transform="translate(0,0)"/>
<path d="" fill="#FFFFFF" transform="translate(0,0)"/>
<path d="" fill="#FFFFFF" transform="translate(0,0)"/>
<path d="" fill="#FFFFFF" transform="translate(0,0)"/>
</svg>
